<mxfile host="app.diagrams.net" agent="Mozilla/5.0 (Windows NT 10.0; Win64; x64) AppleWebKit/537.36 (KHTML, like Gecko) Chrome/135.0.0.0 Safari/537.36" version="27.1.3" pages="2">
  <diagram name="第 1 页" id="2c6VAiDTs5uEBKU6EWW7">
    <mxGraphModel dx="2205" dy="1098" grid="1" gridSize="10" guides="1" tooltips="1" connect="1" arrows="1" fold="1" page="1" pageScale="1" pageWidth="827" pageHeight="1169" math="0" shadow="0">
      <root>
        <mxCell id="0" />
        <mxCell id="1" parent="0" />
        <mxCell id="IF8sYzZvy4wnzW-4cJR5-2" value="华医通制剂门诊模块" style="whiteSpace=wrap;strokeWidth=2;fontSize=24;fillColor=#dae8fc;strokeColor=#6c8ebf;" vertex="1" parent="1">
          <mxGeometry x="2330" y="70" width="250" height="104" as="geometry" />
        </mxCell>
        <mxCell id="IF8sYzZvy4wnzW-4cJR5-3" value="患者端功能" style="whiteSpace=wrap;strokeWidth=2;fillColor=#fff2cc;strokeColor=#d6b656;fontSize=18;" vertex="1" parent="1">
          <mxGeometry x="1341" y="610" width="140" height="54" as="geometry" />
        </mxCell>
        <mxCell id="IF8sYzZvy4wnzW-4cJR5-4" value="医生端功能" style="whiteSpace=wrap;strokeWidth=2;fillColor=#d5e8d4;strokeColor=#82b366;fontSize=18;" vertex="1" parent="1">
          <mxGeometry x="2387" y="224" width="140" height="54" as="geometry" />
        </mxCell>
        <mxCell id="IF8sYzZvy4wnzW-4cJR5-5" value="药剂科管理端功能" style="whiteSpace=wrap;strokeWidth=2;fillColor=#f8cecc;strokeColor=#b85450;fontSize=18;" vertex="1" parent="1">
          <mxGeometry x="3214" y="585" width="188" height="54" as="geometry" />
        </mxCell>
        <mxCell id="IF8sYzZvy4wnzW-4cJR5-6" value="制剂申请" style="whiteSpace=wrap;strokeWidth=2;fontSize=16;" vertex="1" parent="1">
          <mxGeometry x="660" y="714" width="124" height="54" as="geometry" />
        </mxCell>
        <mxCell id="IF8sYzZvy4wnzW-4cJR5-7" value="处方查看" style="whiteSpace=wrap;strokeWidth=2;fontSize=16;" vertex="1" parent="1">
          <mxGeometry x="1115" y="714" width="124" height="54" as="geometry" />
        </mxCell>
        <mxCell id="IF8sYzZvy4wnzW-4cJR5-8" value="缴费管理" style="whiteSpace=wrap;strokeWidth=2;fontSize=16;" vertex="1" parent="1">
          <mxGeometry x="1414" y="714" width="124" height="54" as="geometry" />
        </mxCell>
        <mxCell id="IF8sYzZvy4wnzW-4cJR5-9" value="取药配送" style="whiteSpace=wrap;strokeWidth=2;fontSize=16;" vertex="1" parent="1">
          <mxGeometry x="2030" y="714" width="124" height="54" as="geometry" />
        </mxCell>
        <mxCell id="IF8sYzZvy4wnzW-4cJR5-11" value="医院选择" style="whiteSpace=wrap;strokeWidth=2;fontSize=16;" vertex="1" parent="1">
          <mxGeometry x="474" y="818" width="124" height="54" as="geometry" />
        </mxCell>
        <mxCell id="IF8sYzZvy4wnzW-4cJR5-12" value="制剂选择" style="whiteSpace=wrap;strokeWidth=2;fontSize=16;" vertex="1" parent="1">
          <mxGeometry x="648" y="818" width="124" height="54" as="geometry" />
        </mxCell>
        <mxCell id="IF8sYzZvy4wnzW-4cJR5-13" value="问卷填写" style="whiteSpace=wrap;strokeWidth=2;fontSize=16;" vertex="1" parent="1">
          <mxGeometry x="822" y="818" width="124" height="54" as="geometry" />
        </mxCell>
        <mxCell id="IF8sYzZvy4wnzW-4cJR5-14" value="病情资料提交" style="whiteSpace=wrap;strokeWidth=2;fontSize=16;" vertex="1" parent="1">
          <mxGeometry x="996" y="818" width="156" height="54" as="geometry" />
        </mxCell>
        <mxCell id="IF8sYzZvy4wnzW-4cJR5-15" value="药品费用支付" style="whiteSpace=wrap;strokeWidth=2;fontSize=16;" vertex="1" parent="1">
          <mxGeometry x="1202" y="818" width="156" height="54" as="geometry" />
        </mxCell>
        <mxCell id="IF8sYzZvy4wnzW-4cJR5-16" value="物流费用支付" style="whiteSpace=wrap;strokeWidth=2;fontSize=16;" vertex="1" parent="1">
          <mxGeometry x="1408" y="818" width="156" height="54" as="geometry" />
        </mxCell>
        <mxCell id="IF8sYzZvy4wnzW-4cJR5-17" value="医保结算" style="whiteSpace=wrap;strokeWidth=2;fontSize=16;" vertex="1" parent="1">
          <mxGeometry x="1614" y="818" width="124" height="54" as="geometry" />
        </mxCell>
        <mxCell id="IF8sYzZvy4wnzW-4cJR5-18" value="华西药房配送" style="whiteSpace=wrap;strokeWidth=2;fontSize=16;" vertex="1" parent="1">
          <mxGeometry x="1788" y="818" width="156" height="54" as="geometry" />
        </mxCell>
        <mxCell id="IF8sYzZvy4wnzW-4cJR5-19" value="社会药房配送" style="whiteSpace=wrap;strokeWidth=2;fontSize=16;" vertex="1" parent="1">
          <mxGeometry x="1994" y="818" width="156" height="54" as="geometry" />
        </mxCell>
        <mxCell id="IF8sYzZvy4wnzW-4cJR5-20" value="线下自取" style="whiteSpace=wrap;strokeWidth=2;fontSize=16;" vertex="1" parent="1">
          <mxGeometry x="2200" y="818" width="124" height="54" as="geometry" />
        </mxCell>
        <mxCell id="IF8sYzZvy4wnzW-4cJR5-21" value="自行购买" style="whiteSpace=wrap;strokeWidth=2;fontSize=16;" vertex="1" parent="1">
          <mxGeometry x="2374" y="818" width="124" height="54" as="geometry" />
        </mxCell>
        <mxCell id="IF8sYzZvy4wnzW-4cJR5-22" value="智能分诊" style="whiteSpace=wrap;strokeWidth=2;fontSize=16;" vertex="1" parent="1">
          <mxGeometry x="1921" y="328" width="124" height="54" as="geometry" />
        </mxCell>
        <mxCell id="IF8sYzZvy4wnzW-4cJR5-23" value="接诊管理" style="whiteSpace=wrap;strokeWidth=2;fontSize=16;" vertex="1" parent="1">
          <mxGeometry x="2280" y="328" width="124" height="54" as="geometry" />
        </mxCell>
        <mxCell id="IF8sYzZvy4wnzW-4cJR5-24" value="诊断处方" style="whiteSpace=wrap;strokeWidth=2;fontSize=16;" vertex="1" parent="1">
          <mxGeometry x="2482" y="350" width="124" height="54" as="geometry" />
        </mxCell>
        <mxCell id="IF8sYzZvy4wnzW-4cJR5-25" value="历史病历调阅" style="whiteSpace=wrap;strokeWidth=2;fontSize=16;" vertex="1" parent="1">
          <mxGeometry x="2692" y="362" width="156" height="54" as="geometry" />
        </mxCell>
        <mxCell id="IF8sYzZvy4wnzW-4cJR5-26" value="已匹配患者" style="whiteSpace=wrap;strokeWidth=2;fontSize=16;" vertex="1" parent="1">
          <mxGeometry x="1820" y="432" width="140" height="54" as="geometry" />
        </mxCell>
        <mxCell id="IF8sYzZvy4wnzW-4cJR5-27" value="未匹配患者" style="whiteSpace=wrap;strokeWidth=2;fontSize=16;" vertex="1" parent="1">
          <mxGeometry x="2010" y="432" width="140" height="54" as="geometry" />
        </mxCell>
        <mxCell id="IF8sYzZvy4wnzW-4cJR5-28" value="诊断录入" style="whiteSpace=wrap;strokeWidth=2;fontSize=16;" vertex="1" parent="1">
          <mxGeometry x="2392" y="446" width="124" height="54" as="geometry" />
        </mxCell>
        <mxCell id="IF8sYzZvy4wnzW-4cJR5-29" value="处方开具" style="whiteSpace=wrap;strokeWidth=2;fontSize=16;" vertex="1" parent="1">
          <mxGeometry x="3009" y="466" width="124" height="54" as="geometry" />
        </mxCell>
        <mxCell id="IF8sYzZvy4wnzW-4cJR5-30" value="处方模板调用" style="whiteSpace=wrap;strokeWidth=2;fontSize=16;" vertex="1" parent="1">
          <mxGeometry x="2890" y="362" width="156" height="54" as="geometry" />
        </mxCell>
        <mxCell id="IF8sYzZvy4wnzW-4cJR5-31" value="历史处方引用" style="whiteSpace=wrap;strokeWidth=2;fontSize=16;" vertex="1" parent="1">
          <mxGeometry x="3096" y="362" width="156" height="54" as="geometry" />
        </mxCell>
        <mxCell id="IF8sYzZvy4wnzW-4cJR5-32" value="药品搜索" style="whiteSpace=wrap;strokeWidth=2;fontSize=16;" vertex="1" parent="1">
          <mxGeometry x="3302" y="362" width="124" height="54" as="geometry" />
        </mxCell>
        <mxCell id="IF8sYzZvy4wnzW-4cJR5-33" value="处方审核" style="whiteSpace=wrap;strokeWidth=2;fontSize=16;" vertex="1" parent="1">
          <mxGeometry x="3072" y="689" width="124" height="54" as="geometry" />
        </mxCell>
        <mxCell id="IF8sYzZvy4wnzW-4cJR5-34" value="库存管理" style="whiteSpace=wrap;strokeWidth=2;fontSize=16;" vertex="1" parent="1">
          <mxGeometry x="3246" y="689" width="124" height="54" as="geometry" />
        </mxCell>
        <mxCell id="IF8sYzZvy4wnzW-4cJR5-35" value="发药管理" style="whiteSpace=wrap;strokeWidth=2;fontSize=16;" vertex="1" parent="1">
          <mxGeometry x="3729" y="689" width="124" height="54" as="geometry" />
        </mxCell>
        <mxCell id="IF8sYzZvy4wnzW-4cJR5-36" value="处方详情查看" style="whiteSpace=wrap;strokeWidth=2;fontSize=16;" vertex="1" parent="1">
          <mxGeometry x="2850" y="793" width="156" height="54" as="geometry" />
        </mxCell>
        <mxCell id="IF8sYzZvy4wnzW-4cJR5-37" value="历史处方对比" style="whiteSpace=wrap;strokeWidth=2;fontSize=16;" vertex="1" parent="1">
          <mxGeometry x="3056" y="793" width="156" height="54" as="geometry" />
        </mxCell>
        <mxCell id="IF8sYzZvy4wnzW-4cJR5-38" value="审核判定" style="whiteSpace=wrap;strokeWidth=2;fontSize=16;" vertex="1" parent="1">
          <mxGeometry x="3426" y="793" width="124" height="54" as="geometry" />
        </mxCell>
        <mxCell id="IF8sYzZvy4wnzW-4cJR5-39" value="驳回理由填写" style="whiteSpace=wrap;strokeWidth=2;fontSize=16;" vertex="1" parent="1">
          <mxGeometry x="3420" y="689" width="156" height="54" as="geometry" />
        </mxCell>
        <mxCell id="IF8sYzZvy4wnzW-4cJR5-40" value="华西药房发药" style="whiteSpace=wrap;strokeWidth=2;fontSize=16;" vertex="1" parent="1">
          <mxGeometry x="3610" y="793" width="156" height="54" as="geometry" />
        </mxCell>
        <mxCell id="IF8sYzZvy4wnzW-4cJR5-41" value="协作药房发药" style="whiteSpace=wrap;strokeWidth=2;fontSize=16;" vertex="1" parent="1">
          <mxGeometry x="3816" y="793" width="156" height="54" as="geometry" />
        </mxCell>
        <mxCell id="IF8sYzZvy4wnzW-4cJR5-42" value="" style="curved=1;startArrow=none;endArrow=block;exitX=0;exitY=0.57;entryX=0.5;entryY=0;rounded=0;" edge="1" parent="1" source="IF8sYzZvy4wnzW-4cJR5-2" target="IF8sYzZvy4wnzW-4cJR5-3">
          <mxGeometry relative="1" as="geometry">
            <Array as="points">
              <mxPoint x="957" y="199" />
            </Array>
          </mxGeometry>
        </mxCell>
        <mxCell id="IF8sYzZvy4wnzW-4cJR5-43" value="" style="curved=1;startArrow=none;endArrow=block;exitX=0.5;exitY=1;entryX=0.5;entryY=0;rounded=0;" edge="1" parent="1" source="IF8sYzZvy4wnzW-4cJR5-2" target="IF8sYzZvy4wnzW-4cJR5-4">
          <mxGeometry relative="1" as="geometry">
            <Array as="points" />
          </mxGeometry>
        </mxCell>
        <mxCell id="IF8sYzZvy4wnzW-4cJR5-44" value="" style="curved=1;startArrow=none;endArrow=block;exitX=1;exitY=0.57;entryX=0.5;entryY=0;rounded=0;" edge="1" parent="1" source="IF8sYzZvy4wnzW-4cJR5-2" target="IF8sYzZvy4wnzW-4cJR5-5">
          <mxGeometry relative="1" as="geometry">
            <Array as="points">
              <mxPoint x="3821" y="199" />
            </Array>
          </mxGeometry>
        </mxCell>
        <mxCell id="IF8sYzZvy4wnzW-4cJR5-45" value="" style="curved=1;startArrow=none;endArrow=block;exitX=0;exitY=0.6;entryX=0.5;entryY=0;rounded=0;" edge="1" parent="1" source="IF8sYzZvy4wnzW-4cJR5-3" target="IF8sYzZvy4wnzW-4cJR5-6">
          <mxGeometry relative="1" as="geometry">
            <Array as="points">
              <mxPoint x="722" y="689" />
            </Array>
          </mxGeometry>
        </mxCell>
        <mxCell id="IF8sYzZvy4wnzW-4cJR5-46" value="" style="curved=1;startArrow=none;endArrow=block;exitX=0;exitY=0.79;entryX=0.5;entryY=0;rounded=0;" edge="1" parent="1" source="IF8sYzZvy4wnzW-4cJR5-3" target="IF8sYzZvy4wnzW-4cJR5-7">
          <mxGeometry relative="1" as="geometry">
            <Array as="points">
              <mxPoint x="1177" y="689" />
            </Array>
          </mxGeometry>
        </mxCell>
        <mxCell id="IF8sYzZvy4wnzW-4cJR5-47" value="" style="curved=1;startArrow=none;endArrow=block;exitX=0.74;exitY=1;entryX=0.5;entryY=0;rounded=0;" edge="1" parent="1" source="IF8sYzZvy4wnzW-4cJR5-3" target="IF8sYzZvy4wnzW-4cJR5-8">
          <mxGeometry relative="1" as="geometry">
            <Array as="points">
              <mxPoint x="1476" y="689" />
            </Array>
          </mxGeometry>
        </mxCell>
        <mxCell id="IF8sYzZvy4wnzW-4cJR5-48" value="" style="curved=1;startArrow=none;endArrow=block;exitX=1;exitY=0.6;entryX=0.5;entryY=0;rounded=0;" edge="1" parent="1" source="IF8sYzZvy4wnzW-4cJR5-3" target="IF8sYzZvy4wnzW-4cJR5-9">
          <mxGeometry relative="1" as="geometry">
            <Array as="points">
              <mxPoint x="2092" y="689" />
            </Array>
          </mxGeometry>
        </mxCell>
        <mxCell id="IF8sYzZvy4wnzW-4cJR5-50" value="" style="curved=1;startArrow=none;endArrow=block;exitX=0;exitY=0.82;entryX=0.5;entryY=0;rounded=0;fontSize=16;" edge="1" parent="1" source="IF8sYzZvy4wnzW-4cJR5-6" target="IF8sYzZvy4wnzW-4cJR5-11">
          <mxGeometry relative="1" as="geometry">
            <Array as="points">
              <mxPoint x="536" y="793" />
            </Array>
          </mxGeometry>
        </mxCell>
        <mxCell id="IF8sYzZvy4wnzW-4cJR5-51" value="" style="curved=1;startArrow=none;endArrow=block;exitX=0.45;exitY=1;entryX=0.5;entryY=0;rounded=0;fontSize=16;" edge="1" parent="1" source="IF8sYzZvy4wnzW-4cJR5-6" target="IF8sYzZvy4wnzW-4cJR5-12">
          <mxGeometry relative="1" as="geometry">
            <Array as="points">
              <mxPoint x="710" y="793" />
            </Array>
          </mxGeometry>
        </mxCell>
        <mxCell id="IF8sYzZvy4wnzW-4cJR5-52" value="" style="curved=1;startArrow=none;endArrow=block;exitX=1;exitY=0.87;entryX=0.5;entryY=0;rounded=0;fontSize=16;" edge="1" parent="1" source="IF8sYzZvy4wnzW-4cJR5-6" target="IF8sYzZvy4wnzW-4cJR5-13">
          <mxGeometry relative="1" as="geometry">
            <Array as="points">
              <mxPoint x="884" y="793" />
            </Array>
          </mxGeometry>
        </mxCell>
        <mxCell id="IF8sYzZvy4wnzW-4cJR5-53" value="" style="curved=1;startArrow=none;endArrow=block;exitX=1;exitY=0.67;entryX=0.5;entryY=0;rounded=0;fontSize=16;" edge="1" parent="1" source="IF8sYzZvy4wnzW-4cJR5-6" target="IF8sYzZvy4wnzW-4cJR5-14">
          <mxGeometry relative="1" as="geometry">
            <Array as="points">
              <mxPoint x="1074" y="793" />
            </Array>
          </mxGeometry>
        </mxCell>
        <mxCell id="IF8sYzZvy4wnzW-4cJR5-54" value="" style="curved=1;startArrow=none;endArrow=block;exitX=0;exitY=0.8;entryX=0.5;entryY=0;rounded=0;fontSize=16;" edge="1" parent="1" source="IF8sYzZvy4wnzW-4cJR5-8" target="IF8sYzZvy4wnzW-4cJR5-15">
          <mxGeometry relative="1" as="geometry">
            <Array as="points">
              <mxPoint x="1280" y="793" />
            </Array>
          </mxGeometry>
        </mxCell>
        <mxCell id="IF8sYzZvy4wnzW-4cJR5-55" value="" style="curved=1;startArrow=none;endArrow=block;exitX=0.54;exitY=1;entryX=0.5;entryY=0;rounded=0;fontSize=16;" edge="1" parent="1" source="IF8sYzZvy4wnzW-4cJR5-8" target="IF8sYzZvy4wnzW-4cJR5-16">
          <mxGeometry relative="1" as="geometry">
            <Array as="points">
              <mxPoint x="1486" y="793" />
            </Array>
          </mxGeometry>
        </mxCell>
        <mxCell id="IF8sYzZvy4wnzW-4cJR5-56" value="" style="curved=1;startArrow=none;endArrow=block;exitX=1;exitY=0.8;entryX=0.5;entryY=0;rounded=0;fontSize=16;" edge="1" parent="1" source="IF8sYzZvy4wnzW-4cJR5-8" target="IF8sYzZvy4wnzW-4cJR5-17">
          <mxGeometry relative="1" as="geometry">
            <Array as="points">
              <mxPoint x="1676" y="793" />
            </Array>
          </mxGeometry>
        </mxCell>
        <mxCell id="IF8sYzZvy4wnzW-4cJR5-57" value="" style="curved=1;startArrow=none;endArrow=block;exitX=0;exitY=0.76;entryX=0.5;entryY=0;rounded=0;fontSize=16;" edge="1" parent="1" source="IF8sYzZvy4wnzW-4cJR5-9" target="IF8sYzZvy4wnzW-4cJR5-18">
          <mxGeometry relative="1" as="geometry">
            <Array as="points">
              <mxPoint x="1866" y="793" />
            </Array>
          </mxGeometry>
        </mxCell>
        <mxCell id="IF8sYzZvy4wnzW-4cJR5-58" value="" style="curved=1;startArrow=none;endArrow=block;exitX=0.42;exitY=1;entryX=0.5;entryY=0;rounded=0;fontSize=16;" edge="1" parent="1" source="IF8sYzZvy4wnzW-4cJR5-9" target="IF8sYzZvy4wnzW-4cJR5-19">
          <mxGeometry relative="1" as="geometry">
            <Array as="points">
              <mxPoint x="2072" y="793" />
            </Array>
          </mxGeometry>
        </mxCell>
        <mxCell id="IF8sYzZvy4wnzW-4cJR5-59" value="" style="curved=1;startArrow=none;endArrow=block;exitX=1;exitY=0.85;entryX=0.5;entryY=0;rounded=0;fontSize=16;" edge="1" parent="1" source="IF8sYzZvy4wnzW-4cJR5-9" target="IF8sYzZvy4wnzW-4cJR5-20">
          <mxGeometry relative="1" as="geometry">
            <Array as="points">
              <mxPoint x="2262" y="793" />
            </Array>
          </mxGeometry>
        </mxCell>
        <mxCell id="IF8sYzZvy4wnzW-4cJR5-60" value="" style="curved=1;startArrow=none;endArrow=block;exitX=1;exitY=0.67;entryX=0.5;entryY=0;rounded=0;fontSize=16;" edge="1" parent="1" source="IF8sYzZvy4wnzW-4cJR5-9" target="IF8sYzZvy4wnzW-4cJR5-21">
          <mxGeometry relative="1" as="geometry">
            <Array as="points">
              <mxPoint x="2436" y="793" />
            </Array>
          </mxGeometry>
        </mxCell>
        <mxCell id="IF8sYzZvy4wnzW-4cJR5-61" value="" style="curved=1;startArrow=none;endArrow=block;exitX=0;exitY=0.84;entryX=0.5;entryY=0;rounded=0;" edge="1" parent="1" source="IF8sYzZvy4wnzW-4cJR5-4" target="IF8sYzZvy4wnzW-4cJR5-22">
          <mxGeometry relative="1" as="geometry">
            <Array as="points">
              <mxPoint x="2240" y="269" />
            </Array>
          </mxGeometry>
        </mxCell>
        <mxCell id="IF8sYzZvy4wnzW-4cJR5-62" value="" style="curved=1;startArrow=none;endArrow=block;exitX=0.46;exitY=1;entryX=0.5;entryY=0;rounded=0;" edge="1" parent="1" source="IF8sYzZvy4wnzW-4cJR5-4" target="IF8sYzZvy4wnzW-4cJR5-23">
          <mxGeometry relative="1" as="geometry">
            <Array as="points">
              <mxPoint x="2445" y="303" />
            </Array>
          </mxGeometry>
        </mxCell>
        <mxCell id="IF8sYzZvy4wnzW-4cJR5-63" value="" style="curved=1;startArrow=none;endArrow=block;exitX=1;exitY=0.92;entryX=0.5;entryY=0;rounded=0;" edge="1" parent="1" source="IF8sYzZvy4wnzW-4cJR5-4" target="IF8sYzZvy4wnzW-4cJR5-24">
          <mxGeometry relative="1" as="geometry">
            <Array as="points">
              <mxPoint x="2619" y="303" />
            </Array>
          </mxGeometry>
        </mxCell>
        <mxCell id="IF8sYzZvy4wnzW-4cJR5-64" value="" style="curved=1;startArrow=none;endArrow=block;exitX=1;exitY=0.69;entryX=0.5;entryY=0;rounded=0;" edge="1" parent="1" source="IF8sYzZvy4wnzW-4cJR5-4" target="IF8sYzZvy4wnzW-4cJR5-25">
          <mxGeometry relative="1" as="geometry">
            <Array as="points">
              <mxPoint x="2809" y="303" />
            </Array>
          </mxGeometry>
        </mxCell>
        <mxCell id="IF8sYzZvy4wnzW-4cJR5-65" value="" style="curved=1;startArrow=none;endArrow=block;exitX=0.11;exitY=1;entryX=0.5;entryY=0;rounded=0;fontSize=16;" edge="1" parent="1" source="IF8sYzZvy4wnzW-4cJR5-22" target="IF8sYzZvy4wnzW-4cJR5-26">
          <mxGeometry relative="1" as="geometry">
            <Array as="points">
              <mxPoint x="1890" y="407" />
            </Array>
          </mxGeometry>
        </mxCell>
        <mxCell id="IF8sYzZvy4wnzW-4cJR5-66" value="" style="curved=1;startArrow=none;endArrow=block;exitX=0.91;exitY=1;entryX=0.5;entryY=0;rounded=0;fontSize=16;" edge="1" parent="1" source="IF8sYzZvy4wnzW-4cJR5-22" target="IF8sYzZvy4wnzW-4cJR5-27">
          <mxGeometry relative="1" as="geometry">
            <Array as="points">
              <mxPoint x="2080" y="407" />
            </Array>
          </mxGeometry>
        </mxCell>
        <mxCell id="IF8sYzZvy4wnzW-4cJR5-67" value="" style="curved=1;startArrow=none;endArrow=block;exitX=0.15;exitY=1;entryX=0.5;entryY=0;rounded=0;fontSize=16;" edge="1" parent="1" source="IF8sYzZvy4wnzW-4cJR5-24" target="IF8sYzZvy4wnzW-4cJR5-28">
          <mxGeometry relative="1" as="geometry">
            <Array as="points">
              <mxPoint x="2468" y="429" />
            </Array>
          </mxGeometry>
        </mxCell>
        <mxCell id="IF8sYzZvy4wnzW-4cJR5-68" value="" style="curved=1;startArrow=none;endArrow=block;exitX=1;exitY=0.82;entryX=0;entryY=0.31;rounded=0;fontSize=16;" edge="1" parent="1" source="IF8sYzZvy4wnzW-4cJR5-24" target="IF8sYzZvy4wnzW-4cJR5-29">
          <mxGeometry relative="1" as="geometry">
            <Array as="points">
              <mxPoint x="2739" y="429" />
            </Array>
          </mxGeometry>
        </mxCell>
        <mxCell id="IF8sYzZvy4wnzW-4cJR5-69" value="" style="curved=1;startArrow=none;endArrow=block;exitX=0.5;exitY=1;entryX=0.07;entryY=0;rounded=0;fontSize=16;" edge="1" parent="1" source="IF8sYzZvy4wnzW-4cJR5-30" target="IF8sYzZvy4wnzW-4cJR5-29">
          <mxGeometry relative="1" as="geometry">
            <Array as="points">
              <mxPoint x="2968" y="441" />
            </Array>
          </mxGeometry>
        </mxCell>
        <mxCell id="IF8sYzZvy4wnzW-4cJR5-70" value="" style="curved=1;startArrow=none;endArrow=block;exitX=0.5;exitY=1;entryX=0.93;entryY=0;rounded=0;fontSize=16;" edge="1" parent="1" source="IF8sYzZvy4wnzW-4cJR5-31" target="IF8sYzZvy4wnzW-4cJR5-29">
          <mxGeometry relative="1" as="geometry">
            <Array as="points">
              <mxPoint x="3174" y="441" />
            </Array>
          </mxGeometry>
        </mxCell>
        <mxCell id="IF8sYzZvy4wnzW-4cJR5-71" value="" style="curved=1;startArrow=none;endArrow=block;exitX=0.5;exitY=1;entryX=1;entryY=0.3;rounded=0;fontSize=16;" edge="1" parent="1" source="IF8sYzZvy4wnzW-4cJR5-32" target="IF8sYzZvy4wnzW-4cJR5-29">
          <mxGeometry relative="1" as="geometry">
            <Array as="points">
              <mxPoint x="3364" y="441" />
            </Array>
          </mxGeometry>
        </mxCell>
        <mxCell id="IF8sYzZvy4wnzW-4cJR5-72" value="" style="curved=1;startArrow=none;endArrow=block;exitX=0.02;exitY=1;entryX=0.5;entryY=0;rounded=0;" edge="1" parent="1" source="IF8sYzZvy4wnzW-4cJR5-5" target="IF8sYzZvy4wnzW-4cJR5-33">
          <mxGeometry relative="1" as="geometry">
            <Array as="points">
              <mxPoint x="3134" y="664" />
            </Array>
          </mxGeometry>
        </mxCell>
        <mxCell id="IF8sYzZvy4wnzW-4cJR5-73" value="" style="curved=1;startArrow=none;endArrow=block;exitX=0.5;exitY=1;entryX=0.5;entryY=0;rounded=0;" edge="1" parent="1" source="IF8sYzZvy4wnzW-4cJR5-5" target="IF8sYzZvy4wnzW-4cJR5-34">
          <mxGeometry relative="1" as="geometry">
            <Array as="points" />
          </mxGeometry>
        </mxCell>
        <mxCell id="IF8sYzZvy4wnzW-4cJR5-74" value="" style="curved=1;startArrow=none;endArrow=block;exitX=1;exitY=0.69;entryX=0.5;entryY=0;rounded=0;" edge="1" parent="1" source="IF8sYzZvy4wnzW-4cJR5-5" target="IF8sYzZvy4wnzW-4cJR5-35">
          <mxGeometry relative="1" as="geometry">
            <Array as="points">
              <mxPoint x="3791" y="664" />
            </Array>
          </mxGeometry>
        </mxCell>
        <mxCell id="IF8sYzZvy4wnzW-4cJR5-75" value="" style="curved=1;startArrow=none;endArrow=block;exitX=0;exitY=0.79;entryX=0.5;entryY=0;rounded=0;fontSize=16;" edge="1" parent="1" source="IF8sYzZvy4wnzW-4cJR5-33" target="IF8sYzZvy4wnzW-4cJR5-36">
          <mxGeometry relative="1" as="geometry">
            <Array as="points">
              <mxPoint x="2928" y="768" />
            </Array>
          </mxGeometry>
        </mxCell>
        <mxCell id="IF8sYzZvy4wnzW-4cJR5-76" value="" style="curved=1;startArrow=none;endArrow=block;exitX=0.5;exitY=1;entryX=0.5;entryY=0;rounded=0;fontSize=16;" edge="1" parent="1" source="IF8sYzZvy4wnzW-4cJR5-33" target="IF8sYzZvy4wnzW-4cJR5-37">
          <mxGeometry relative="1" as="geometry">
            <Array as="points" />
          </mxGeometry>
        </mxCell>
        <mxCell id="IF8sYzZvy4wnzW-4cJR5-77" value="" style="curved=1;startArrow=none;endArrow=block;exitX=1;exitY=0.83;entryX=0;entryY=0.15;rounded=0;fontSize=16;" edge="1" parent="1" source="IF8sYzZvy4wnzW-4cJR5-33" target="IF8sYzZvy4wnzW-4cJR5-38">
          <mxGeometry relative="1" as="geometry">
            <Array as="points">
              <mxPoint x="3316" y="768" />
            </Array>
          </mxGeometry>
        </mxCell>
        <mxCell id="IF8sYzZvy4wnzW-4cJR5-78" value="" style="curved=1;startArrow=none;endArrow=block;exitX=0.5;exitY=1;entryX=0.54;entryY=0;rounded=0;fontSize=16;" edge="1" parent="1" source="IF8sYzZvy4wnzW-4cJR5-39" target="IF8sYzZvy4wnzW-4cJR5-38">
          <mxGeometry relative="1" as="geometry">
            <Array as="points">
              <mxPoint x="3498" y="768" />
            </Array>
          </mxGeometry>
        </mxCell>
        <mxCell id="IF8sYzZvy4wnzW-4cJR5-79" value="" style="curved=1;startArrow=none;endArrow=block;exitX=0.07;exitY=1;entryX=0.5;entryY=0;rounded=0;fontSize=16;" edge="1" parent="1" source="IF8sYzZvy4wnzW-4cJR5-35" target="IF8sYzZvy4wnzW-4cJR5-40">
          <mxGeometry relative="1" as="geometry">
            <Array as="points">
              <mxPoint x="3688" y="768" />
            </Array>
          </mxGeometry>
        </mxCell>
        <mxCell id="IF8sYzZvy4wnzW-4cJR5-80" value="" style="curved=1;startArrow=none;endArrow=block;exitX=0.93;exitY=1;entryX=0.5;entryY=0;rounded=0;fontSize=16;" edge="1" parent="1" source="IF8sYzZvy4wnzW-4cJR5-35" target="IF8sYzZvy4wnzW-4cJR5-41">
          <mxGeometry relative="1" as="geometry">
            <Array as="points">
              <mxPoint x="3894" y="768" />
            </Array>
          </mxGeometry>
        </mxCell>
        <mxCell id="IF8sYzZvy4wnzW-4cJR5-81" value="" style="curved=1;startArrow=none;endArrow=block;exitX=1;exitY=0.56;entryX=0.5;entryY=0;rounded=0;entryDx=0;entryDy=0;" edge="1" parent="1" source="IF8sYzZvy4wnzW-4cJR5-3" target="IF8sYzZvy4wnzW-4cJR5-10">
          <mxGeometry relative="1" as="geometry">
            <Array as="points">
              <mxPoint x="2030" y="650" />
            </Array>
            <mxPoint x="1481" y="640" as="sourcePoint" />
            <mxPoint x="2527" y="714" as="targetPoint" />
          </mxGeometry>
        </mxCell>
        <mxCell id="IF8sYzZvy4wnzW-4cJR5-10" value="订单查询" style="whiteSpace=wrap;strokeWidth=2;fontSize=16;" vertex="1" parent="1">
          <mxGeometry x="2450" y="714" width="124" height="54" as="geometry" />
        </mxCell>
      </root>
    </mxGraphModel>
  </diagram>
  <diagram id="uFg7E_dFso2XeabN2RZW" name="第 2 页">
    <mxGraphModel dx="1436" dy="705" grid="1" gridSize="10" guides="1" tooltips="1" connect="1" arrows="1" fold="1" page="1" pageScale="1" pageWidth="827" pageHeight="1169" math="0" shadow="0">
      <root>
        <mxCell id="0" />
        <mxCell id="1" parent="0" />
        <mxCell id="XoKwE408zN5f4M1Wbg9F-1" value="用户进入合作专区" style="rounded=1;arcSize=20;strokeWidth=2" vertex="1" parent="1">
          <mxGeometry x="145" y="20" width="158" height="54" as="geometry" />
        </mxCell>
        <mxCell id="XoKwE408zN5f4M1Wbg9F-2" value="浏览商家列表" style="whiteSpace=wrap;strokeWidth=2;" vertex="1" parent="1">
          <mxGeometry x="146" y="124" width="156" height="54" as="geometry" />
        </mxCell>
        <mxCell id="XoKwE408zN5f4M1Wbg9F-3" value="选择商家" style="rhombus;strokeWidth=2;whiteSpace=wrap;" vertex="1" parent="1">
          <mxGeometry x="165" y="228" width="118" height="118" as="geometry" />
        </mxCell>
        <mxCell id="XoKwE408zN5f4M1Wbg9F-4" value="查看推荐套餐" style="whiteSpace=wrap;strokeWidth=2;" vertex="1" parent="1">
          <mxGeometry x="146" y="396" width="156" height="54" as="geometry" />
        </mxCell>
        <mxCell id="XoKwE408zN5f4M1Wbg9F-5" value="直接下单?" style="rhombus;strokeWidth=2;whiteSpace=wrap;" vertex="1" parent="1">
          <mxGeometry x="163" y="500" width="124" height="124" as="geometry" />
        </mxCell>
        <mxCell id="XoKwE408zN5f4M1Wbg9F-6" value="跳转外卖平台" style="whiteSpace=wrap;strokeWidth=2;" vertex="1" parent="1">
          <mxGeometry x="249" y="697" width="156" height="54" as="geometry" />
        </mxCell>
        <mxCell id="XoKwE408zN5f4M1Wbg9F-7" value="查看营养详情" style="whiteSpace=wrap;strokeWidth=2;" vertex="1" parent="1">
          <mxGeometry x="28" y="801" width="156" height="54" as="geometry" />
        </mxCell>
        <mxCell id="XoKwE408zN5f4M1Wbg9F-8" value="加入自定义餐单" style="whiteSpace=wrap;strokeWidth=2;" vertex="1" parent="1">
          <mxGeometry x="20" y="939" width="172" height="54" as="geometry" />
        </mxCell>
        <mxCell id="XoKwE408zN5f4M1Wbg9F-9" value="生成饮食记录" style="whiteSpace=wrap;strokeWidth=2;" vertex="1" parent="1">
          <mxGeometry x="43" y="1101" width="156" height="54" as="geometry" />
        </mxCell>
        <mxCell id="XoKwE408zN5f4M1Wbg9F-10" value="监听订单状态" style="whiteSpace=wrap;strokeWidth=2;" vertex="1" parent="1">
          <mxGeometry x="249" y="801" width="156" height="54" as="geometry" />
        </mxCell>
        <mxCell id="XoKwE408zN5f4M1Wbg9F-11" value="订单完成?" style="rhombus;strokeWidth=2;whiteSpace=wrap;" vertex="1" parent="1">
          <mxGeometry x="266" y="905" width="124" height="124" as="geometry" />
        </mxCell>
        <mxCell id="XoKwE408zN5f4M1Wbg9F-12" value="显示异常提示" style="whiteSpace=wrap;strokeWidth=2;" vertex="1" parent="1">
          <mxGeometry x="270" y="1101" width="156" height="54" as="geometry" />
        </mxCell>
        <mxCell id="XoKwE408zN5f4M1Wbg9F-13" value="同步到数据看板" style="whiteSpace=wrap;strokeWidth=2;" vertex="1" parent="1">
          <mxGeometry x="35" y="1205" width="172" height="54" as="geometry" />
        </mxCell>
        <mxCell id="XoKwE408zN5f4M1Wbg9F-14" value="" style="curved=1;startArrow=none;endArrow=block;exitX=0.5;exitY=1;entryX=0.5;entryY=0;rounded=0;" edge="1" parent="1" source="XoKwE408zN5f4M1Wbg9F-1" target="XoKwE408zN5f4M1Wbg9F-2">
          <mxGeometry relative="1" as="geometry">
            <Array as="points" />
          </mxGeometry>
        </mxCell>
        <mxCell id="XoKwE408zN5f4M1Wbg9F-15" value="" style="curved=1;startArrow=none;endArrow=block;exitX=0.5;exitY=1;entryX=0.5;entryY=0;rounded=0;" edge="1" parent="1" source="XoKwE408zN5f4M1Wbg9F-2" target="XoKwE408zN5f4M1Wbg9F-3">
          <mxGeometry relative="1" as="geometry">
            <Array as="points" />
          </mxGeometry>
        </mxCell>
        <mxCell id="XoKwE408zN5f4M1Wbg9F-16" value="" style="curved=1;startArrow=none;endArrow=block;exitX=0.5;exitY=1;entryX=0.5;entryY=0;rounded=0;" edge="1" parent="1" source="XoKwE408zN5f4M1Wbg9F-3" target="XoKwE408zN5f4M1Wbg9F-4">
          <mxGeometry relative="1" as="geometry">
            <Array as="points" />
          </mxGeometry>
        </mxCell>
        <mxCell id="XoKwE408zN5f4M1Wbg9F-17" value="" style="curved=1;startArrow=none;endArrow=block;exitX=0.5;exitY=1;entryX=0.5;entryY=0;rounded=0;" edge="1" parent="1" source="XoKwE408zN5f4M1Wbg9F-4" target="XoKwE408zN5f4M1Wbg9F-5">
          <mxGeometry relative="1" as="geometry">
            <Array as="points" />
          </mxGeometry>
        </mxCell>
        <mxCell id="XoKwE408zN5f4M1Wbg9F-18" value="是" style="curved=1;startArrow=none;endArrow=block;exitX=1;exitY=0.98;entryX=0.5;entryY=-0.01;rounded=0;" edge="1" parent="1" source="XoKwE408zN5f4M1Wbg9F-5" target="XoKwE408zN5f4M1Wbg9F-6">
          <mxGeometry relative="1" as="geometry">
            <Array as="points">
              <mxPoint x="327" y="660" />
            </Array>
          </mxGeometry>
        </mxCell>
        <mxCell id="XoKwE408zN5f4M1Wbg9F-19" value="否" style="curved=1;startArrow=none;endArrow=block;exitX=0;exitY=0.91;entryX=0.5;entryY=-0.01;rounded=0;" edge="1" parent="1" source="XoKwE408zN5f4M1Wbg9F-5" target="XoKwE408zN5f4M1Wbg9F-7">
          <mxGeometry relative="1" as="geometry">
            <Array as="points">
              <mxPoint x="106" y="660" />
            </Array>
          </mxGeometry>
        </mxCell>
        <mxCell id="XoKwE408zN5f4M1Wbg9F-20" value="" style="curved=1;startArrow=none;endArrow=block;exitX=0.5;exitY=0.99;entryX=0.5;entryY=0.01;rounded=0;" edge="1" parent="1" source="XoKwE408zN5f4M1Wbg9F-7" target="XoKwE408zN5f4M1Wbg9F-8">
          <mxGeometry relative="1" as="geometry">
            <Array as="points" />
          </mxGeometry>
        </mxCell>
        <mxCell id="XoKwE408zN5f4M1Wbg9F-21" value="" style="curved=1;startArrow=none;endArrow=block;exitX=0.5;exitY=1.01;entryX=0.46;entryY=0;rounded=0;" edge="1" parent="1" source="XoKwE408zN5f4M1Wbg9F-8" target="XoKwE408zN5f4M1Wbg9F-9">
          <mxGeometry relative="1" as="geometry">
            <Array as="points">
              <mxPoint x="106" y="1065" />
            </Array>
          </mxGeometry>
        </mxCell>
        <mxCell id="XoKwE408zN5f4M1Wbg9F-22" value="" style="curved=1;startArrow=none;endArrow=block;exitX=0.5;exitY=0.99;entryX=0.5;entryY=-0.01;rounded=0;" edge="1" parent="1" source="XoKwE408zN5f4M1Wbg9F-6" target="XoKwE408zN5f4M1Wbg9F-10">
          <mxGeometry relative="1" as="geometry">
            <Array as="points" />
          </mxGeometry>
        </mxCell>
        <mxCell id="XoKwE408zN5f4M1Wbg9F-23" value="" style="curved=1;startArrow=none;endArrow=block;exitX=0.5;exitY=0.99;entryX=0.5;entryY=0;rounded=0;" edge="1" parent="1" source="XoKwE408zN5f4M1Wbg9F-10" target="XoKwE408zN5f4M1Wbg9F-11">
          <mxGeometry relative="1" as="geometry">
            <Array as="points" />
          </mxGeometry>
        </mxCell>
        <mxCell id="XoKwE408zN5f4M1Wbg9F-24" value="是" style="curved=1;startArrow=none;endArrow=block;exitX=0;exitY=0.97;entryX=0.78;entryY=0;rounded=0;" edge="1" parent="1" source="XoKwE408zN5f4M1Wbg9F-11" target="XoKwE408zN5f4M1Wbg9F-9">
          <mxGeometry relative="1" as="geometry">
            <Array as="points">
              <mxPoint x="224" y="1065" />
            </Array>
          </mxGeometry>
        </mxCell>
        <mxCell id="XoKwE408zN5f4M1Wbg9F-25" value="否" style="curved=1;startArrow=none;endArrow=block;exitX=0.6;exitY=1;entryX=0.5;entryY=0;rounded=0;" edge="1" parent="1" source="XoKwE408zN5f4M1Wbg9F-11" target="XoKwE408zN5f4M1Wbg9F-12">
          <mxGeometry relative="1" as="geometry">
            <Array as="points">
              <mxPoint x="348" y="1065" />
            </Array>
          </mxGeometry>
        </mxCell>
        <mxCell id="XoKwE408zN5f4M1Wbg9F-26" value="" style="curved=1;startArrow=none;endArrow=block;exitX=0.5;exitY=1;entryX=0.5;entryY=0;rounded=0;" edge="1" parent="1" source="XoKwE408zN5f4M1Wbg9F-9" target="XoKwE408zN5f4M1Wbg9F-13">
          <mxGeometry relative="1" as="geometry">
            <Array as="points" />
          </mxGeometry>
        </mxCell>
      </root>
    </mxGraphModel>
  </diagram>
</mxfile>
